<svg xmlns="http://www.w3.org/2000/svg" version="1.1" xmlns:xlink="http://www.w3.org/1999/xlink" width="438" height="570"><svg xmlns="http://www.w3.org/2000/svg" version="1.1" viewBox="0.00 0.00 438.00 570.00">
<g stroke-width="2.00" fill="none" stroke-linecap="butt">
<path stroke="#0a917e" vector-effect="non-scaling-stroke" d="
  M 389.50 421.07
  Q 384.07 421.96 379.50 421.70
  Q 365.61 420.93 313.98 417.71
  C 304.25 417.11 295.71 416.91 285.50 416.01
  Q 271.22 414.77 247.25 413.74
  C 241.47 413.49 232.30 411.91 224.83 412.69
  A 0.82 0.82 0.0 0 0 224.60 414.26
  Q 232.50 417.55 240.24 421.93
  C 253.89 429.67 270.50 437.62 280.86 443.10
  Q 292.62 449.32 299.24 452.63
  Q 311.15 458.56 317.65 462.13
  C 322.70 464.89 327.98 467.07 333.59 470.13
  A 3.45 3.36 80.7 0 1 334.32 470.67
  L 336.85 473.15"></path>
<path stroke="#0c735a" vector-effect="non-scaling-stroke" d="
  M 336.85 473.15
  Q 312.64 497.55 297.83 512.09
  Q 296.97 512.93 297.20 513.71"></path>
<path stroke="#116c6e" vector-effect="non-scaling-stroke" d="
  M 389.16 521.09
  Q 363.57 497.51 338.67 474.08
  Q 337.51 472.98 336.85 473.15"></path>
</g>
<path fill="#05976a" d="
  M 13.48 0.00
  Q 15.45 0.35 17.39 0.00
  L 438.00 0.00
  L 438.00 371.97
  L 389.50 421.07
  Q 384.07 421.96 379.50 421.70
  Q 365.61 420.93 313.98 417.71
  C 304.25 417.11 295.71 416.91 285.50 416.01
  Q 271.22 414.77 247.25 413.74
  C 241.47 413.49 232.30 411.91 224.83 412.69
  A 0.82 0.82 0.0 0 0 224.60 414.26
  Q 232.50 417.55 240.24 421.93
  C 253.89 429.67 270.50 437.62 280.86 443.10
  Q 292.62 449.32 299.24 452.63
  Q 311.15 458.56 317.65 462.13
  C 322.70 464.89 327.98 467.07 333.59 470.13
  A 3.45 3.36 80.7 0 1 334.32 470.67
  L 336.85 473.15
  Q 312.64 497.55 297.83 512.09
  Q 296.97 512.93 297.20 513.71
  Q 296.22 513.90 295.43 514.68
  Q 267.82 542.44 240.18 570.00
  L 1.38 570.00
  L 1.45 0.96
  A 0.79 0.78 77.6 0 1 1.90 0.25
  L 2.42 0.00
  L 13.48 0.00
  Z
  M 137.59 373.36
  L 405.94 373.36
  A 1.05 1.05 0.0 0 0 406.99 372.31
  L 406.99 32.73
  A 1.03 1.02 90.0 0 0 405.97 31.70
  L 33.72 31.70
  A 0.72 0.71 -90.0 0 0 33.01 32.42
  L 33.01 538.49
  A 1.23 1.23 0.0 0 0 34.23 539.72
  Q 120.01 539.93 183.50 539.81
  Q 193.93 539.79 196.56 539.99
  Q 203.90 540.57 209.44 540.11
  Q 216.46 539.52 233.34 539.95
  A 0.71 0.71 0.0 0 0 233.97 538.88
  L 137.02 374.36
  A 0.66 0.66 0.0 0 1 137.59 373.36
  Z"></path>
<rect fill="#05976a" x="69.30" y="86.99" width="86.48" height="113.38" rx="1.08"></rect>
<rect fill="#05976a" x="184.42" y="87.05" width="186.26" height="17.90" rx="1.18"></rect>
<rect fill="#05976a" x="184.38" y="134.70" width="186.30" height="18.02" rx="1.36"></rect>
<rect fill="#05976a" x="184.36" y="182.32" width="186.34" height="18.08" rx="1.41"></rect>
<rect fill="#05976a" x="69.24" y="230.08" width="301.38" height="18.00" rx="0.96"></rect>
<rect fill="#05976a" x="69.24" y="277.80" width="301.34" height="18.00" rx="0.92"></rect>
<rect fill="#05976a" x="69.24" y="325.55" width="301.44" height="18.12" rx="1.40"></rect>
<path fill="#05976a" d="
  M 69.27 390.32
  L 69.27 374.41
  A 1.05 1.05 0.0 0 1 70.32 373.36
  L 101.37 373.36
  A 1.05 1.05 0.0 0 1 102.27 373.88
  L 111.65 389.79
  A 1.05 1.05 0.0 0 1 110.74 391.37
  L 70.32 391.37
  A 1.05 1.05 0.0 0 1 69.27 390.32
  Z"></path>
<path fill="#0e8a92" d="
  M 389.50 421.07
  L 389.16 521.09
  Q 363.57 497.51 338.67 474.08
  Q 337.51 472.98 336.85 473.15
  L 334.32 470.67
  A 3.45 3.36 80.7 0 0 333.59 470.13
  C 327.98 467.07 322.70 464.89 317.65 462.13
  Q 311.15 458.56 299.24 452.63
  Q 292.62 449.32 280.86 443.10
  C 270.50 437.62 253.89 429.67 240.24 421.93
  Q 232.50 417.55 224.60 414.26
  A 0.82 0.82 0.0 0 1 224.83 412.69
  C 232.30 411.91 241.47 413.49 247.25 413.74
  Q 271.22 414.77 285.50 416.01
  C 295.71 416.91 304.25 417.11 313.98 417.71
  Q 365.61 420.93 379.50 421.70
  Q 384.07 421.96 389.50 421.07
  Z"></path>
<path fill="#05976a" d="
  M 69.27 437.87
  L 69.27 422.14
  A 1.21 1.21 0.0 0 1 70.48 420.93
  L 129.26 420.93
  A 1.21 1.21 0.0 0 1 130.30 421.53
  L 139.57 437.26
  A 1.21 1.21 0.0 0 1 138.52 439.08
  L 70.48 439.08
  A 1.21 1.21 0.0 0 1 69.27 437.87
  Z"></path>
<path fill="#05976a" d="
  M 69.24 485.99
  L 69.24 469.37
  A 0.81 0.81 0.0 0 1 70.05 468.56
  L 157.53 468.56
  A 0.81 0.81 0.0 0 1 158.22 468.96
  L 168.02 485.58
  A 0.81 0.81 0.0 0 1 167.32 486.80
  L 70.05 486.80
  A 0.81 0.81 0.0 0 1 69.24 485.99
  Z"></path>
<path fill="#134e4a" d="
  M 389.16 521.09
  Q 389.49 521.55 389.25 522.24
  A 0.50 0.50 0.0 0 1 388.59 522.54
  Q 386.83 521.85 385.00 521.70
  Q 341.07 518.14 297.20 513.71
  Q 296.97 512.93 297.83 512.09
  Q 312.64 497.55 336.85 473.15
  Q 337.51 472.98 338.67 474.08
  Q 363.57 497.51 389.16 521.09
  Z"></path>
</svg><style>@media (prefers-color-scheme: light) { :root { filter: none; } }
@media (prefers-color-scheme: dark) { :root { filter: none; } }
</style></svg>